# Blender v2.80 (sub 75) OBJ File: ''
# www.blender.org
mtllib arrow.mtl
o Model_0_Mesh.001
v -0.781250 -0.781251 -13.964300
v 0.000000 -0.000001 -17.089300
v 0.781250 -0.781251 -13.964300
v -0.781250 0.781249 -13.964300
v 0.781250 0.781249 -13.964300
v -0.415000 -0.414999 14.062500
v -0.415000 -0.415001 -14.062500
v 0.415000 -0.415001 -14.062500
v 0.415000 -0.414999 14.062500
v -0.415000 0.415001 14.062500
v -0.415000 0.414999 -14.062500
v 0.415000 0.414999 -14.062500
v 0.415000 0.415001 14.062500
vt 0.736584 0.481576
vt 0.773432 0.481576
vt 0.773432 0.518424
vt 0.736584 0.518424
vt 0.736584 0.481576
vt 0.773432 0.481576
vt 0.736584 0.481576
vt 0.773432 0.481576
vt 0.773432 0.518424
vt 0.736584 0.481576
vt 0.773432 0.518424
vt 0.322219 0.581904
vt 0.335607 0.551875
vt 0.335606 0.579590
vt 0.304019 0.565504
vt 0.309272 0.551896
vt 0.340860 0.565982
vt 0.322659 0.549582
vt 0.309272 0.579608
vn 0.0000 0.0000 1.0000
vn -0.9701 0.0000 -0.2425
vn 0.9701 0.0000 -0.2425
vn 0.0000 -0.9701 -0.2425
vn 0.0000 0.9701 -0.2425
vn -1.0000 0.0000 0.0000
vn 1.0000 0.0000 0.0000
vn 0.0000 -1.0000 0.0000
vn 0.0000 1.0000 -0.0000
usemtl None__Texture_png
s off
f 5/1/1 4/2/1 1/3/1 3/4/1
f 4/5/2 2/6/2 1/3/2
f 2/7/3 5/8/3 3/9/3
f 1/10/4 2/6/4 3/9/4
f 5/1/5 2/6/5 4/11/5
f 10/12/6 11/13/6 7/14/6 6/15/6
f 12/16/7 13/17/7 9/18/7 8/19/7
f 13/17/1 10/12/1 6/15/1 9/18/1
f 6/15/8 7/14/8 8/19/8 9/18/8
f 13/17/9 12/16/9 11/13/9 10/12/9
