# Blender v2.80 (sub 75) OBJ File: ''
# www.blender.org
mtllib colt.mtl
o Model_0
v 0.254168 -0.999952 0.665468
v 0.254168 -0.954228 1.233302
v -0.254168 -0.954228 1.233302
v -0.254168 -0.999952 0.665468
v 0.254168 0.001139 0.513253
v 0.254168 0.001139 1.082702
v -0.254168 0.001139 1.082701
v -0.254168 0.001139 0.513253
v 0.254168 0.582837 0.513253
v 0.254168 0.582837 1.082701
v -0.254168 0.582837 1.082701
v -0.254168 0.582837 0.513253
v 0.254168 0.001139 -0.977200
v -0.254168 0.001139 -0.977200
v 0.254168 0.582837 -0.977200
v -0.254168 0.582837 -0.977200
v -0.254168 0.193298 0.513253
v -0.254168 0.193298 1.146855
v 0.254168 0.193298 1.146855
v 0.254168 0.193298 0.513253
v -0.254168 0.193297 -0.977200
v 0.254168 0.193297 -0.977200
v 0.254168 0.582837 0.023335
v 0.254168 0.001139 0.023335
v -0.254168 0.001139 0.023335
v -0.254168 0.582837 0.023335
v 0.254168 0.193298 0.023335
v -0.254168 0.193298 0.023335
v 0.168316 0.582837 0.513253
v 0.168317 0.582837 0.023335
v 0.254168 0.369670 0.513253
v 0.254168 0.369670 0.023335
v 0.168316 0.369670 0.513253
v 0.168317 0.369670 0.023335
v -0.113232 0.426800 1.256850
v -0.113232 0.275104 1.079123
v 0.113232 0.275104 1.079123
v 0.113232 0.426800 1.256850
v -0.113232 0.517347 1.218366
v -0.113232 0.460263 1.042704
v 0.113232 0.460263 1.042704
v 0.113232 0.517347 1.218366
v -0.275696 -0.305697 0.908859
v -0.275696 -0.318362 0.739231
v 0.275695 -0.318362 0.739231
v 0.275695 -0.305697 0.908859
v -0.275696 -0.136068 0.896194
v -0.275696 -0.148733 0.726566
v 0.275695 -0.148733 0.726566
v 0.275695 -0.136068 0.896194
v -0.275696 -0.787092 1.010197
v -0.275696 -0.799757 0.840569
v 0.275695 -0.799757 0.840569
v 0.275695 -0.787092 1.010197
v -0.275696 -0.617463 0.997532
v -0.275696 -0.630129 0.827904
v 0.275695 -0.630129 0.827904
v 0.275695 -0.617463 0.997532
v -0.224821 0.528305 1.053690
v -0.224821 0.528305 0.878253
v -0.067805 0.528305 0.878253
v -0.067805 0.528305 1.053690
v -0.224821 0.668693 1.053690
v -0.224821 0.644937 0.878253
v -0.067805 0.644937 0.878253
v -0.067805 0.668693 1.053690
v -0.038547 0.528305 -0.752602
v -0.038547 0.528305 -0.928039
v 0.038547 0.528305 -0.928039
v 0.038547 0.528305 -0.752602
v -0.038547 0.644936 -0.752602
v -0.038547 0.668692 -0.928039
v 0.038547 0.668692 -0.928039
v 0.038547 0.644936 -0.752602
v 0.224821 0.528305 1.053690
v 0.224821 0.528305 0.878253
v 0.067805 0.528305 0.878253
v 0.067805 0.528305 1.053690
v 0.224821 0.668693 1.053690
v 0.224821 0.644937 0.878253
v 0.067805 0.644937 0.878253
v 0.067805 0.668693 1.053690
v -0.212274 -0.148733 0.726566
v 0.212274 -0.148733 0.726566
v 0.212274 -0.318362 0.739231
v -0.212274 -0.318362 0.739231
v 0.212274 -0.136068 0.896194
v -0.212274 -0.136068 0.896194
v -0.212274 -0.305697 0.908859
v 0.212274 -0.305697 0.908859
v -0.212274 -0.630129 0.827904
v 0.212274 -0.630129 0.827904
v 0.212274 -0.799757 0.840569
v -0.212274 -0.799757 0.840569
v 0.212274 -0.617463 0.997532
v -0.212274 -0.617463 0.997532
v -0.212274 -0.787092 1.010197
v 0.212274 -0.787092 1.010197
vt 0.428053 0.151916
vt 0.275105 0.151916
vt 0.275105 0.015435
vt 0.428053 0.015435
vt 0.185548 0.478731
vt 0.015435 0.478731
vt 0.032660 0.374146
vt 0.185548 0.374146
vt 0.769090 0.385759
vt 0.767607 0.657622
vt 0.616583 0.633815
vt 0.616583 0.374146
vt 0.015435 0.151916
vt 0.015435 0.015435
vt 0.883360 0.015435
vt 0.881943 0.275101
vt 0.730791 0.298083
vt 0.730792 0.026216
vt 0.699920 0.151916
vt 0.699920 0.015435
vt 0.168324 0.561194
vt 0.168324 0.584244
vt 0.168324 0.697675
vt 0.015435 0.697675
vt 0.015435 0.561194
vt 0.446471 0.782937
vt 0.582951 0.782937
vt 0.582951 0.888931
vt 0.446471 0.888931
vt 0.314150 0.237037
vt 0.314173 0.184780
vt 0.586765 0.184774
vt 0.586767 0.237126
vt 0.015435 0.237037
vt 0.185548 0.237037
vt 0.185548 0.285186
vt 0.185548 0.343273
vt 0.032660 0.343273
vt 0.904547 0.374146
vt 0.904547 0.510627
vt 0.799961 0.510627
vt 0.799961 0.374146
vt 0.317084 0.478731
vt 0.317084 0.374146
vt 0.585712 0.374146
vt 0.585712 0.478732
vt 0.299860 0.697675
vt 0.299860 0.584244
vt 0.299860 0.561194
vt 0.568488 0.561194
vt 0.568488 0.697675
vt 0.146971 0.865027
vt 0.146971 0.728546
vt 0.415600 0.728546
vt 0.415600 0.865027
vt 0.185548 0.530323
vt 0.032660 0.530323
vt 0.446471 0.728546
vt 0.582951 0.728546
vt 0.032660 0.184782
vt 0.185548 0.184782
vt 0.956139 0.374146
vt 0.956139 0.510627
vt 0.317084 0.530323
vt 0.585712 0.530323
vt 0.314122 0.285186
vt 0.015435 0.865027
vt 0.015435 0.728546
vt 0.586766 0.343275
vt 0.314122 0.343273
vt 0.639633 0.858104
vt 0.771169 0.858105
vt 0.771169 0.881154
vt 0.639633 0.881154
vt 0.616583 0.938386
vt 0.616583 0.881154
vt 0.639633 0.938386
vt 0.794219 0.881154
vt 0.794219 0.938387
vt 0.771169 0.938387
vt 0.676429 0.777643
vt 0.627029 0.781986
vt 0.616583 0.732409
vt 0.676429 0.751228
vt 0.786632 0.781986
vt 0.737232 0.777643
vt 0.737232 0.751228
vt 0.797078 0.732409
vt 0.676429 0.688493
vt 0.737232 0.688493
vt 0.737232 0.827234
vt 0.676429 0.827234
vt 0.395586 0.917396
vt 0.395586 0.963066
vt 0.349917 0.963066
vt 0.349917 0.917396
vt 0.082604 0.900369
vt 0.082604 0.917396
vt 0.036934 0.917396
vt 0.036934 0.900369
vt 0.082604 0.963066
vt 0.036934 0.963066
vt 0.395586 0.900369
vt 0.349917 0.900369
vt 0.019907 0.963066
vt 0.019907 0.917396
vt 0.412614 0.917396
vt 0.412614 0.963066
vt 0.245813 0.917396
vt 0.291482 0.917396
vt 0.291482 0.963066
vt 0.245813 0.963066
vt 0.184755 0.900369
vt 0.184755 0.917396
vt 0.139086 0.917396
vt 0.139086 0.900369
vt 0.184755 0.963066
vt 0.139086 0.963066
vt 0.228785 0.917396
vt 0.228785 0.963066
vt 0.122058 0.963066
vt 0.122058 0.917396
vt 0.245813 0.900369
vt 0.291482 0.900369
vt 0.865641 0.915730
vt 0.913173 0.915730
vt 0.917374 0.946761
vt 0.870698 0.953081
vt 0.913173 0.873574
vt 0.944486 0.873574
vt 0.944486 0.915730
vt 0.865641 0.873574
vt 0.870698 0.836222
vt 0.917374 0.842543
vt 0.827949 0.915730
vt 0.827949 0.873574
vt 0.831275 0.599547
vt 0.878807 0.599547
vt 0.873749 0.636898
vt 0.827073 0.630578
vt 0.878807 0.578849
vt 0.916499 0.578849
vt 0.916499 0.599547
vt 0.831275 0.578849
vt 0.827073 0.547818
vt 0.873749 0.541498
vt 0.799961 0.599547
vt 0.799961 0.578849
vt 0.865641 0.725844
vt 0.870698 0.688493
vt 0.917374 0.694813
vt 0.913173 0.725844
vt 0.944486 0.725844
vt 0.944486 0.768000
vt 0.913173 0.768000
vt 0.917374 0.799031
vt 0.870698 0.805352
vt 0.865641 0.768000
vt 0.827949 0.768000
vt 0.827949 0.725844
vt 0.099631 0.917396
vt 0.099631 0.963066
vt 0.332889 0.963066
vt 0.332889 0.917396
vt 0.082604 0.980093
vt 0.036934 0.980093
vt 0.395586 0.980093
vt 0.349917 0.980093
vt 0.201783 0.917396
vt 0.201783 0.963066
vt 0.291482 0.980093
vt 0.245813 0.980093
vt 0.184755 0.980093
vt 0.139086 0.980093
vt 0.308510 0.917396
vt 0.308510 0.963066
vn 0.0000 -0.9968 0.0803
vn -1.0000 0.0000 -0.0000
vn 1.0000 0.0000 0.0000
vn -0.0000 0.1557 0.9878
vn 0.0000 -0.1503 -0.9886
vn 0.0000 1.0000 -0.0000
vn -0.0000 0.1625 0.9867
vn 0.0000 -0.0000 -1.0000
vn -0.0000 -1.0000 0.0000
vn -0.0000 -0.3167 0.9485
vn -0.0000 0.0000 1.0000
vn 0.0000 0.3911 0.9203
vn 0.0000 -0.7606 0.6492
vn 0.0000 0.9510 -0.3091
vn 0.0000 -0.0745 -0.9972
vn 0.0000 0.0745 0.9972
vn 0.0000 -0.9972 0.0745
vn 0.0000 0.9972 -0.0745
vn 0.0000 0.9910 -0.1342
vn 0.0000 0.9910 0.1342
usemtl None
s 1
f 1/1/1 2/2/1 3/3/1 4/4/1
f 17/5/2 18/6/2 11/7/2 12/8/2
f 1/9/3 5/10/3 6/11/3 2/12/3
f 2/2/4 6/13/4 7/14/4 3/3/4
f 3/15/2 7/16/2 8/17/2 4/18/2
f 5/19/5 1/1/5 4/4/5 8/20/5
f 9/21/6 29/22/6 12/23/6 11/24/6 10/25/6
f 18/26/7 19/27/7 10/28/7 11/29/7
f 27/30/3 24/31/3 13/32/3 22/33/3
f 19/34/3 20/35/3 31/36/3 9/37/3 10/38/3
f 22/39/8 21/40/8 16/41/8 15/42/8
f 28/43/2 26/44/2 16/45/2 21/46/2
f 26/47/6 30/48/6 23/49/6 15/50/6 16/51/6
f 24/52/9 25/53/9 14/54/9 13/55/9
f 8/56/2 7/57/2 18/6/2 17/5/2
f 7/58/10 6/59/10 19/27/10 18/26/10
f 6/60/3 5/61/3 20/35/3 19/34/3
f 13/62/8 14/63/8 21/40/8 22/39/8
f 25/64/2 28/43/2 21/46/2 14/65/2
f 12/23/6 29/22/6 30/48/6 26/47/6
f 20/35/3 5/61/3 24/31/3 27/30/3
f 17/5/2 12/8/2 26/44/2 28/43/2
f 20/35/3 27/30/3 32/66/3 31/36/3
f 5/67/9 8/68/9 25/53/9 24/52/9
f 8/56/2 17/5/2 28/43/2 25/64/2
f 15/69/3 23/70/3 32/66/3 27/30/3 22/33/3
f 31/71/6 32/72/6 34/73/6 33/74/6
f 9/75/8 31/76/8 33/74/8 29/77/8
f 32/78/11 23/79/11 30/80/11 34/73/11
f 29/77/3 33/74/3 34/73/3 30/80/3
f 39/81/2 40/82/2 36/83/2 35/84/2
f 41/85/3 42/86/3 38/87/3 37/88/3
f 42/86/12 39/81/12 35/84/12 38/87/12
f 35/84/13 36/89/13 37/90/13 38/87/13
f 42/86/14 41/91/14 40/92/14 39/81/14
f 47/93/2 48/94/2 44/95/2 43/96/2
f 84/97/15 49/98/15 45/99/15 85/100/15
f 49/98/3 50/101/3 46/102/3 45/99/3
f 88/103/16 47/93/16 43/96/16 89/104/16
f 90/105/17 85/106/17 45/99/17 46/102/17
f 88/107/18 83/108/18 48/94/18 47/93/18
f 55/109/2 56/110/2 52/111/2 51/112/2
f 92/113/15 57/114/15 53/115/15 93/116/15
f 57/114/3 58/117/3 54/118/3 53/115/3
f 96/119/16 55/109/16 51/112/16 97/120/16
f 98/121/17 93/122/17 53/115/17 54/118/17
f 96/123/18 91/124/18 56/110/18 55/109/18
f 63/125/2 64/126/2 60/127/2 59/128/2
f 64/126/8 65/129/8 61/130/8 60/131/8
f 65/129/3 66/132/3 62/133/3 61/134/3
f 66/132/11 63/125/11 59/135/11 62/136/11
f 66/132/19 65/129/19 64/126/19 63/125/19
f 71/137/2 72/138/2 68/139/2 67/140/2
f 72/138/8 73/141/8 69/142/8 68/143/8
f 73/141/3 74/144/3 70/145/3 69/146/3
f 74/144/11 71/137/11 67/147/11 70/148/11
f 74/144/20 73/141/20 72/138/20 71/137/20
f 79/149/3 75/150/3 76/151/3 80/152/3
f 80/152/8 76/153/8 77/154/8 81/155/8
f 81/155/2 77/156/2 78/157/2 82/158/2
f 82/158/11 78/159/11 75/160/11 79/149/11
f 82/158/19 79/149/19 80/152/19 81/155/19
f 50/101/18 49/98/18 84/161/18 87/162/18
f 43/96/17 44/95/17 86/163/17 89/164/17
f 50/101/16 87/165/16 90/166/16 46/102/16
f 48/94/15 83/167/15 86/168/15 44/95/15
f 58/117/18 57/114/18 92/169/18 95/170/18
f 51/112/17 52/111/17 94/171/17 97/172/17
f 58/117/16 95/173/16 98/174/16 54/118/16
f 56/110/15 91/175/15 94/176/15 52/111/15
