# Blender v2.80 (sub 75) OBJ File: ''
# www.blender.org
mtllib crossbow.mtl
o Model_0_Mesh
v -0.397445 0.216444 -3.637625
v 0.397445 0.216444 -3.637625
v -0.397445 0.355419 -3.637625
v 0.397445 0.355419 -3.637625
v -0.539285 0.216444 -3.637625
v -0.539285 0.216444 -3.776605
v 0.539285 0.216444 -3.776605
v 0.539285 0.216444 -3.637625
v -0.539285 0.355419 -3.637625
v -0.539285 0.355419 -3.776605
v 0.539285 0.355419 -3.776605
v 0.539285 0.355419 -3.637625
v -0.347445 0.216444 -3.077155
v 0.347445 0.216444 -3.077155
v -0.347445 0.355419 -3.077155
v 0.347445 0.355419 -3.077155
v -0.489285 0.216444 -3.077155
v 0.489285 0.216444 -3.077155
v -0.489285 0.355419 -3.077155
v 0.489285 0.355419 -3.077155
v -0.264790 -0.131920 0.700920
v -0.297070 0.069315 -2.974040
v 0.297070 0.069315 -2.974040
v 0.264790 -0.131920 0.700920
v -0.264790 0.672970 0.700920
v -0.297070 0.672969 -2.974040
v 0.297070 0.672969 -2.974040
v 0.264790 0.672970 0.700920
v -0.264790 0.478456 3.510270
v 0.264790 0.478456 3.510270
v -0.264790 -0.931490 0.920810
v 0.264790 -0.931490 0.920810
v -0.264790 -1.027854 3.510270
v 0.264790 -1.027854 3.510270
v -0.297070 0.069314 -3.224040
v 0.297070 0.069314 -3.224040
v -0.297070 0.672969 -3.224040
v 0.297070 0.672969 -3.224040
v -1.291960 0.371145 -2.647750
v 1.291960 0.371145 -2.647750
v -1.291960 0.672970 -2.647750
v 1.291960 0.672970 -2.647750
v -1.437680 0.371145 -2.824525
v 1.437680 0.371145 -2.824525
v -1.437680 0.672969 -2.824525
v 1.437680 0.672969 -2.824525
v -1.808120 0.371145 -1.656130
v 1.808120 0.371145 -1.656130
v -1.808120 0.672970 -1.656130
v 1.808120 0.672970 -1.656130
v -2.012060 0.371145 -1.781385
v 2.012060 0.371145 -1.781385
v -2.012060 0.672970 -1.781385
v 2.012060 0.672970 -1.781385
v -0.264790 0.672970 -0.125695
v 0.264790 0.672970 -0.125695
v -0.143560 0.797970 0.700920
v 0.143560 0.797970 0.700920
v -0.143560 0.797970 -0.125695
v 0.143560 0.797970 -0.125695
v 0.264790 0.488565 2.105595
v -0.264790 0.488565 2.105595
v -0.264790 -0.896350 1.845110
v 0.264790 -0.896350 1.845110
v 0.054650 0.663180 -0.121495
v 0.054650 0.663180 -3.099040
v 0.143560 0.663180 -3.099040
v 0.143560 0.663180 -0.121495
v 0.054650 0.719595 -0.121495
v 0.054650 0.719595 -3.099040
v 0.143560 0.719595 -3.099040
v 0.143560 0.719595 -0.121495
v -0.054650 0.663180 -0.121495
v -0.054650 0.663180 -3.099040
v -0.143560 0.663180 -3.099040
v -0.143560 0.663180 -0.121495
v -0.054650 0.719595 -0.121495
v -0.054650 0.719595 -3.099040
v -0.143560 0.719595 -3.099040
v -0.143560 0.719595 -0.121495
vt 0.857436 0.798045
vt 0.857436 0.783242
vt 0.862760 0.723558
vt 0.877864 0.723558
vt 0.872540 0.783242
vt 0.957212 0.783241
vt 0.951885 0.723540
vt 0.966994 0.723540
vt 0.972321 0.783241
vt 0.972321 0.798045
vt 0.786158 0.992616
vt 0.671279 0.992617
vt 0.671279 0.977815
vt 0.786158 0.977813
vt 0.609337 0.551668
vt 0.524673 0.551668
vt 0.524673 0.536865
vt 0.609337 0.536865
vt 0.656477 0.977815
vt 0.656477 0.992617
vt 0.800961 0.977813
vt 0.800961 0.992616
vt 0.372133 0.830698
vt 0.764140 0.827259
vt 0.764140 0.890541
vt 0.372133 0.887103
vt 0.857441 0.571032
vt 0.857441 0.556230
vt 0.972320 0.556230
vt 0.972320 0.571032
vt 0.966994 0.630728
vt 0.951887 0.630728
vt 0.957212 0.571032
vt 0.872548 0.571032
vt 0.877874 0.630728
vt 0.862767 0.630728
vt 0.860894 0.977813
vt 0.860894 0.992616
vt 0.596545 0.992616
vt 0.596545 0.977813
vt 0.669270 0.536865
vt 0.669270 0.551668
vt 0.464741 0.551668
vt 0.464741 0.536865
vt 0.721677 0.401493
vt 0.418280 0.401245
vt 0.330238 0.401146
vt 0.180644 0.381373
vt 0.031033 0.380163
vt 0.031175 0.219726
vt 0.208519 0.233890
vt 0.306969 0.230235
vt 0.330314 0.315418
vt 0.721729 0.337198
vt 0.260366 0.491671
vt 0.197085 0.491648
vt 0.197094 0.465021
vt 0.260376 0.465043
vt 0.197094 0.820225
vt 0.075608 0.777672
vt 0.014435 0.666565
vt 0.036156 0.653225
vt 0.091129 0.758844
vt 0.197094 0.793598
vt 0.260375 0.793598
vt 0.366341 0.758843
vt 0.421316 0.653224
vt 0.443038 0.666565
vt 0.381862 0.777671
vt 0.260376 0.820225
vt 0.450751 0.648930
vt 0.754128 0.645493
vt 0.754128 0.708775
vt 0.450751 0.705336
vt 0.614356 0.465021
vt 0.614356 0.521427
vt 0.464741 0.521427
vt 0.464741 0.465021
vt 0.736163 0.450256
vt 0.736163 0.289819
vt 0.792569 0.289819
vt 0.792569 0.450256
vt 0.185291 0.830697
vt 0.185291 0.887103
vt 0.007383 0.887102
vt 0.007383 0.830697
vt 0.283809 0.887103
vt 0.283809 0.830697
vt 0.262942 0.905308
vt 0.326224 0.905308
vt 0.326224 0.969603
vt 0.262942 0.969603
vt 0.086337 0.526361
vt 0.071285 0.507155
vt 0.386153 0.507266
vt 0.371088 0.526461
vt 0.454946 0.905308
vt 0.454946 0.937455
vt 0.134219 0.937455
vt 0.134219 0.905307
vt 0.450751 0.787835
vt 0.450751 0.723540
vt 0.562270 0.755687
vt 0.562270 0.787835
vt 0.720820 0.566433
vt 0.720820 0.630728
vt 0.609301 0.630728
vt 0.609301 0.598580
vt 0.681339 0.787835
vt 0.681339 0.755687
vt 0.706830 0.755687
vt 0.706830 0.787835
vt 0.490232 0.598580
vt 0.490232 0.630728
vt 0.464741 0.630728
vt 0.464741 0.598580
vt 0.028768 0.630591
vt 0.007383 0.616718
vt 0.449976 0.616870
vt 0.428580 0.630728
vt 0.581779 0.905307
vt 0.581779 0.937455
vt 0.007383 0.937454
vt 0.007383 0.905306
vt 0.792569 0.221469
vt 0.736163 0.221469
vt 0.749076 0.208155
vt 0.779657 0.208155
vt 0.736163 0.025929
vt 0.824206 0.025929
vt 0.824206 0.056510
vt 0.736163 0.056511
vt 0.824206 0.075057
vt 0.736163 0.075057
vt 0.736163 0.236234
vt 0.792569 0.236234
vt 0.779656 0.249548
vt 0.749075 0.249548
vt 0.736163 0.007383
vt 0.824206 0.007383
vt 0.765252 0.465021
vt 0.765252 0.521427
vt 0.330333 0.093127
vt 0.306936 0.178297
vt 0.208488 0.174582
vt 0.031135 0.188638
vt 0.031091 0.028200
vt 0.180702 0.027082
vt 0.330309 0.007399
vt 0.418352 0.007353
vt 0.721746 0.007289
vt 0.721760 0.071584
vt 0.596545 0.957038
vt 0.913680 0.957039
vt 0.913680 0.963048
vt 0.596545 0.963048
vt 0.913680 0.947569
vt 0.919689 0.947569
vt 0.919689 0.957038
vt 0.596545 0.947568
vt 0.596545 0.941560
vt 0.913680 0.941560
vt 0.596545 0.911316
vt 0.596545 0.905307
vt 0.913679 0.905306
vt 0.913679 0.911315
vt 0.919689 0.911315
vt 0.919689 0.920785
vt 0.913679 0.920785
vt 0.913679 0.926794
vt 0.596545 0.926794
vt 0.596545 0.920785
vn 0.0000 1.0000 -0.0000
vn 0.0000 0.0000 -1.0000
vn 0.0000 0.0000 1.0000
vn -1.0000 0.0000 0.0000
vn 1.0000 0.0000 0.0000
vn 0.0000 -0.9985 -0.0547
vn 0.0000 -1.0000 0.0000
vn 0.9960 0.0000 0.0889
vn -0.9960 0.0000 0.0889
vn -0.9960 0.0000 -0.0889
vn 0.9960 0.0000 -0.0889
vn 1.0000 0.0020 0.0034
vn 0.0000 1.0000 0.0072
vn 0.0000 -0.9969 -0.0787
vn 0.0000 -0.2652 -0.9642
vn -0.2447 -0.9660 0.0835
vn 0.2447 -0.9660 0.0835
vn 0.3306 0.0000 -0.9438
vn -0.3306 0.0000 -0.9438
vn -0.3116 0.0000 0.9502
vn 0.3116 0.0000 0.9502
vn 0.5234 0.0000 0.8521
vn -0.5234 0.0000 0.8521
vn 0.8760 0.0000 -0.4823
vn -0.8760 0.0000 -0.4823
vn -0.8870 0.0000 0.4617
vn 0.8870 0.0000 0.4617
vn -0.7178 0.6962 -0.0000
vn 0.7178 0.6962 -0.0000
vn 0.0000 0.9915 0.1302
vn 0.0000 -0.9993 0.0380
vn -1.0000 0.0020 0.0034
usemtl None__Albedo_png
s off
f 10/1/1 9/2/1 19/3/1 15/4/1 3/5/1 4/6/1 16/7/1 20/8/1 12/9/1 11/10/1
f 7/11/2 6/12/2 10/13/2 11/14/2
f 4/15/3 3/16/3 1/17/3 2/18/3
f 9/19/4 10/13/4 6/12/4 5/20/4
f 11/14/5 12/21/5 8/22/5 7/11/5
f 21/23/6 22/24/6 23/25/6 24/26/6
f 5/27/7 6/28/7 7/29/7 8/30/7 18/31/7 14/32/7 2/33/7 1/34/7 13/35/7 17/36/7
f 8/22/8 12/21/8 20/37/8 18/38/8
f 9/19/9 5/20/9 17/39/9 19/40/9
f 4/15/10 2/18/10 14/41/10 16/42/10
f 1/17/11 3/16/11 15/43/11 13/44/11
f 27/45/12 56/46/12 28/47/12 61/48/12 30/49/12 34/50/12 64/51/12 32/52/12 24/53/12 23/54/12
f 23/55/7 22/56/7 35/57/7 36/58/7
f 37/59/1 45/60/1 53/61/1 49/62/1 41/63/1 26/64/1 27/65/1 42/66/1 50/67/1 54/68/1 46/69/1 38/70/1
f 56/71/1 27/72/1 26/73/1 55/74/1
f 61/75/13 62/76/13 29/77/13 30/78/13
f 29/79/3 33/80/3 34/81/3 30/82/3
f 63/83/14 64/84/14 34/85/14 33/86/14
f 21/23/15 24/26/15 32/87/15 31/88/15
f 37/89/2 38/90/2 36/91/2 35/92/2
f 35/57/16 22/56/16 39/93/16 43/94/16
f 23/55/17 36/58/17 44/95/17 40/96/17
f 36/91/18 38/90/18 46/97/18 44/98/18
f 37/89/19 35/92/19 43/99/19 45/100/19
f 27/101/20 23/102/20 40/103/20 42/104/20
f 22/105/21 26/106/21 41/107/21 39/108/21
f 50/109/22 48/110/22 52/111/22 54/112/22
f 47/113/23 49/114/23 53/115/23 51/116/23
f 43/94/7 39/93/7 47/117/7 51/118/7
f 40/96/7 44/95/7 52/119/7 48/120/7
f 44/98/24 46/97/24 54/121/24 52/122/24
f 45/100/25 43/99/25 51/123/25 53/124/25
f 42/104/26 40/103/26 48/110/26 50/109/26
f 39/108/27 41/107/27 49/114/27 47/113/27
f 56/125/2 55/126/2 59/127/2 60/128/2
f 58/129/1 60/130/1 59/131/1 57/132/1
f 55/133/28 25/134/28 57/132/28 59/131/28
f 25/135/3 28/136/3 58/137/3 57/138/3
f 28/139/29 56/140/29 60/130/29 58/129/29
f 28/141/30 25/142/30 62/76/30 61/75/30
f 31/88/31 32/87/31 64/84/31 63/83/31
f 21/143/32 31/144/32 63/145/32 33/146/32 29/147/32 62/148/32 25/149/32 55/150/32 26/151/32 22/152/32
f 69/153/4 70/154/4 66/155/4 65/156/4
f 70/154/2 71/157/2 67/158/2 66/159/2
f 71/157/5 72/160/5 68/161/5 67/162/5
f 72/160/1 71/157/1 70/154/1 69/153/1
f 77/163/5 73/164/5 74/165/5 78/166/5
f 78/166/2 74/167/2 75/168/2 79/169/2
f 79/169/4 75/170/4 76/171/4 80/172/4
f 80/172/1 77/163/1 78/166/1 79/169/1
